<svg xmlns="http://www.w3.org/2000/svg" width="24" height="24" fill-rule="evenodd" stroke-linejoin="round" stroke-miterlimit="2" clip-rule="evenodd" id="giftbox"><path d="M7.764 8 5.553 6.894a.997.997 0 0 1-.26-1.601l3-3a.999.999 0 0 1 1.601.26L12 6.764l2.106-4.211a.997.997 0 0 1 1.601-.26l3 3a.999.999 0 0 1-.26 1.601L16.236 8H20a1 1 0 0 1 1 1v4a1 1 0 0 1-1 1v7a1 1 0 0 1-1 1H5a1 1 0 0 1-1-1v-7a1 1 0 0 1-1-1V9a1 1 0 0 1 1-1ZM11 14H6v6h5zm2 0v6h5v-6Zm-2-4H5v2h6zm2 0v2h6v-2ZM7.688 5.726l2.076 1.038-1.038-2.076Zm6.548 1.038 2.076-1.038-1.038-1.038z"></path></svg>